<mxfile host="65bd71144e">
    <diagram id="60EvfPECcyGJsGhw0NjJ" name="Page-1">
        <mxGraphModel dx="978" dy="692" grid="1" gridSize="10" guides="1" tooltips="1" connect="1" arrows="1" fold="1" page="1" pageScale="1" pageWidth="1600" pageHeight="1200" math="0" shadow="0">
            <root>
                <mxCell id="0"/>
                <mxCell id="1" parent="0"/>
                <mxCell id="11" value="" style="rounded=0;whiteSpace=wrap;html=1;" vertex="1" parent="1">
                    <mxGeometry x="590" y="140" width="690" height="620" as="geometry"/>
                </mxCell>
                <mxCell id="22" value="" style="rounded=1;whiteSpace=wrap;html=1;fillColor=#f5f5f5;fontColor=#333333;strokeColor=#666666;" vertex="1" parent="1">
                    <mxGeometry x="630" y="525" width="240" height="220" as="geometry"/>
                </mxCell>
                <mxCell id="2" value="" style="shape=mxgraph.cisco.computers_and_peripherals.pc;html=1;pointerEvents=1;dashed=0;fillColor=#036897;strokeColor=#ffffff;strokeWidth=2;verticalLabelPosition=bottom;verticalAlign=top;align=center;outlineConnect=0;" vertex="1" parent="1">
                    <mxGeometry x="92" y="380" width="78" height="70" as="geometry"/>
                </mxCell>
                <mxCell id="3" value="ATTACKER&lt;br&gt;" style="text;html=1;align=center;verticalAlign=middle;resizable=0;points=[];autosize=1;strokeColor=none;fillColor=none;" vertex="1" parent="1">
                    <mxGeometry x="80" y="450" width="90" height="30" as="geometry"/>
                </mxCell>
                <mxCell id="6" value="" style="endArrow=classic;html=1;" edge="1" parent="1">
                    <mxGeometry width="50" height="50" relative="1" as="geometry">
                        <mxPoint x="190" y="420" as="sourcePoint"/>
                        <mxPoint x="550" y="420" as="targetPoint"/>
                    </mxGeometry>
                </mxCell>
                <mxCell id="7" value="10.10.14.13" style="edgeLabel;html=1;align=center;verticalAlign=middle;resizable=0;points=[];" vertex="1" connectable="0" parent="6">
                    <mxGeometry x="-0.112" y="1" relative="1" as="geometry">
                        <mxPoint y="1" as="offset"/>
                    </mxGeometry>
                </mxCell>
                <mxCell id="8" value="" style="aspect=fixed;perimeter=ellipsePerimeter;html=1;align=center;shadow=0;dashed=0;spacingTop=3;image;image=img/lib/active_directory/generic_server.svg;" vertex="1" parent="1">
                    <mxGeometry x="559.2" y="350" width="61.6" height="110" as="geometry"/>
                </mxCell>
                <mxCell id="9" value="" style="outlineConnect=0;dashed=0;verticalLabelPosition=bottom;verticalAlign=top;align=center;html=1;shape=mxgraph.aws3.vpn_connection;fillColor=#F58534;gradientColor=none;" vertex="1" parent="1">
                    <mxGeometry x="320" y="360" width="60" height="46" as="geometry"/>
                </mxCell>
                <mxCell id="10" value="10.10.11.211&lt;br&gt;" style="text;html=1;align=center;verticalAlign=middle;resizable=0;points=[];autosize=1;strokeColor=none;fillColor=none;" vertex="1" parent="1">
                    <mxGeometry x="620.8" y="390" width="90" height="30" as="geometry"/>
                </mxCell>
                <mxCell id="13" value="" style="shape=image;imageAspect=0;aspect=fixed;verticalLabelPosition=bottom;verticalAlign=top;image=data:image/png,iVBORw0KGgoAAAANSUhEUgAAAMgAAADICAIAAAAiOjnJAAAACXBIWXMAAA7zAAAO8wEcU5k6AAAAEXRFWHRUaXRsZQBQREYgQ3JlYXRvckFevCgAAAATdEVYdEF1dGhvcgBQREYgVG9vbHMgQUcbz3cwAAAALXpUWHREZXNjcmlwdGlvbgAACJnLKCkpsNLXLy8v1ytISdMtyc/PKdZLzs8FAG6fCPGXryy4AAAfhUlEQVR42u2daawcV5XHq5e3tpfYCVntBMeTxc5ix46daHAIODCJ5IlmPgxiESAxCIRmFA0jIYSExDc+gDIaxIcgBQgEhREyViAIWQkSIxnNJBCZJCYTnIU4cTbHcZzF9ttfV8+v6v/epVxbd73XHVfb58hqV1dX96u693/Pfs6ttFotz8io21S1ITAyYBkZsIwMWEZGBiwjA5aRAcvIyIBlZMAyMmAZGRmwjAxYRgYsIyMDlpEBy8iAZWRkwDIyYBkZsIyMDFhGBiwjA5aRkQHLyIBlZMAyMjJgGRmwjAxYRkYGLCMDlpEBy8jIgGVkwDIyYBkZGbCMDFhGBiwjIwOWkQHLyIBlZGTAMjJgGRmwjIwMWEYGLCMDlpGRAcvoVFK9X26UfRWbzWatVqtUKrzluFqtctyt/Rb1s2nkZ91QxvW1Lj6z7/vV2twP8oabbLZ8PThnJiYmRkZGyjlflb7bCBNIBbNXq3Hnk5OTvR9ZvyAauiMExsfGRhsNDmamp4HX0PDwHJqrwZTNzs4ODAxwYnp6mgEpIbz6BlgzMzMMJa8ca0x1RjhbPNVqtULAgn9kcL7uCQEx6Xrwg36zyfPCq6ZmppcsWaLPWVfDIeDEyw1YCyQ3jixThrherx85ckRQ64qoTR8gzy8kOlt+pTt8MhR8gbJSr4OkxjyYvMrcp4GCXK2Oj4+Pjo6WEFh9o2NpBLU6n3/++SeffJIz55133tDQUG9XXkFg+d1hoF6j0Th+/DhwB1hvv/32sWPH1qxZs2XLltElDbFq8Ww3JsaxFkWPPvroM888s3bt2ssvv5xVOzU1JR7WS1GYp+qlmNnV7uhY/D7oQZeCPbN4uL2XX36ZZ1+6dOn27dt5y3lUKy7TgelYCxdVv/nNbxjrDRs2ACneLlu2DKbVrfsv+jtZAOqWzicmBLuS5avb4/jo0aO7du362te+JsWgGdLg4KABa4F07733Xn/99RdddBHHrGCkgIzt2WZv3Q1ZojBTJ6t0RyRJx/JD4gCEiafCwjj40Y9+9KlPferss88G385MNmC1H1ONlxusX/ziF5dddtmSkDiJgNBwB5f5PR6gou6GHvucsQ6Rhqhc999//+c//3nWGDNYNlSVFFhwIzlC5a3505/+hPV3xRVXsGoFOK3ROR5TqZ1RwAo9D4H6hWq/d+/eT37yk+WUMGW0CoUY6RZwpqeffvqqq64KpcCsUMVHQl4gJ1rFdJqiC+lUAStLNPPc8rDAvFlmBw8evOSSS8TjDVjtDTRNP+vypZdeYsiWL18+NjbmxlqoUpCnVXAie8+h/Z4CiyfmIzR3LOLNmzc//PDDF198cdlQVUZgwZYQebL7GEHkIAM3HYY1HJ5mQ5qLHtYHvTOJWpXg8RkKjGLg9e6778ofUbb7LB3Stfh4FcOHY+EFxQCshiTV3invQLBVkPoGQBnEIPD4egVYl1566RtvvOH7vnGsjoAlQcDYObkgfUuvsgcV5Pdn/aIT1tcci8fHfcWqQzdAQ0AgHjp06MILLzRgtR84By9GTZENeQJjyod0+Vp9uMfAKpfyPjk5jruBMTnnnHOAF34H5+IyYLUZUI0p3mSABcJQIKZnAkvQC53P8i/4rcDRUCFk1vKzACotjXFnApgMIm7yZRd2OBQUYkWBzl2xQqRE6gw36bh1HLaDI+MTU40ly3jlK8uWrwhCigu60TPOKkxylyz1KMgkyACWMCStn1dWtkzLLHXkVIlIRZQV9UOV1G1zoDBzh4NjfqyFwytVNITMrZIzZ7KYVqxYgfX0zjvvgK2sNJtTNT3I+hMnTrz55puIe1IVYNKo5BxkcazoMiuzvljvC1RJqBX6onK24ASsfiaJsBqTxxQWdfn0evJgomALhQk8EVOHUYEwjrPUphYOh36wRep9gSqn1HcuClHRwBYMAH/P4cOHecv8yftVSFnu9czBTcGTYglyAnOf3HaHnggThYt15xTlWKSXkAqBwo7KcsEFF4gZwMB67fIpep/wUbA1HdJZZ50F9JHahGt42yHHMmAtamKK6lh4Dl988cV9+/Y99NBDgIzRh2khFrNSl7o1PUVF7Qc/+MFt27atXr1a2rqiCyyDHOs16e/l/0rFgLUgvlVUFJJseccdd/xzSMrAQYtH1rS1tlL9ar0DFibFD3/4w2uuueZjH/sYeEIIEmmAaXl9TvVywsjxJzl4cuQLK5v5QHYwJYp4ACDOfOUrX/nmN7+JeYWjQWG1aLpc59Qt32PWI2CofvnLX/7+979P1jWZjNw8qFKoKge7LgLB+CA9y8au+kh5T88bQ+EAT8rccqwFeffEE098/OMfR2VBU0EXroWEEHTe1wKA6PEzgiSY1mc+85lvfOMbN9xwA0siX3NqeS3jWF02DLNI1YXOzw6YqOG5/fbb9RZgybvNZYCvqOe957wgtAfhuOeff/7rr7+OIu/Npzpm3VDJXaN9o2Np9WZxGuQCc4Ck40DSAT8Q0kRxa6EKfoY9qFBJUdFW6Rp+0n+JeKd8pOvWreMReBAEd45bJOpl6GKHgTMCWG4OoqOWJQqlbUCuWApgqZyVA14JpSkVQmIxx6PdU2BlIiDMMyaUSfo1N4lSiGREiCPQc4BVZkj1lx/Ly1I4xKUk6ZTvIDkiux0wSdBwkk+ZtqJWXq9F4XCthpqI/gdP5UBJjllOrA51AwNWR4Zhh7ab8r6VIeiy4YJ2GkNDMqOU5nCqlPcsKHB78CoULA5gqLjcVq5ciV83qxC3Na+/uyEyB2mvIKhULUWXWfda7oAJNiBBicdB+pbycE6hFZIkRB5KlRxaaFogDAURVGXCJbIwypwTWy8nr3L9MBj3UJ/ws0Rhq1KteS2X0CyxIo9oczaIQ2NFDQ4EYpG3tao3UKuGjp+K9DCm84ILzyO7d2gocJySUR6+6s8hZb3abCP7ZlMwWhuYa1sFByJGCftRDnGWxz+sNWpOTU80lozwJBwMDQ/4zSyGXa21mnLX6QK/OcO/ky/1297ke0DVfmFLbfWwDhcxujzaGLBj+mFyqF+HXjs8PDQKQoN/PkLTC195W6v4Nd9rZv+bSZ7kN/F5vvXWW/whsZ+ipqjTovo6bb/eL3jKsQodKWs0a/RlSZ173jlMOccwBhgbfAXuUq8PzmjZz734rb9+K1/Zj1U1otW1wBbuKBgVAWawxauEcueeiLYqpinv3bIK2w+0lPfoiLuvONnK6+HDhxBP2JHAa2S4MT4+GQanp4IKKrhU4o+0alOFbrg51YIXqjca94PPc64VQEazkKjjIOKjynzQ2GemY/VEGjr7KCk7ktMmOvfcc7G84FPgCdWn0VjSaCx988jRZ595PvXv+gWBNTI0rLQqVHLYFQmGylbIzPdKc93lAKsSGYpKCWOEpQVWJWH1LCAfKxoTjGEL7R4dC1TRIa3RGD1xYvzO//jOvff++N/u+HcvTQWWOt85+a1pMU6qsh544IGf/exnwAuDNIdjOa9BRxzLMz9WV1lUFsfqHHBCGEjCr33i+HhtoD48OHDX9763evXF+/c/HaQ/hMHuQITJCK34vGt6GWk2GYCrD1aUt46aRachmnbs2bMnRxRmPHilreFcck9pv8QK8wAU+ygrJVAHSxrLJsanRhqBL/6FAwfpfXDfff9y7Ni7+CTD/h9+1ZsFNNiHAKvaggMl3Q1Z6nxwfiJsg6YIEs0d77zzzp07d37605/ukhXc0nMYx1qsK8vlY+VZhX7Ttb2L2oZzGaZRmy3gHKQ8DM/O+NVK/bXXXmPK8QX84dFH7rjjX/km3pdly2sVr3niXW/lCo98O97QPYkavoEaB4GQmpr2hoe8iSlv5VlDJ05MTc96K5YP0kIBWHFwdDywCnExUB+BKKRPzre//e0vfOELWbE/L1TtuQeXZaVzmaJ27oKKjkUGrJ74sTr0YP1VIM75FeBL+BJgTbgj/eGR+sQ46pG3dcvGwXrlD7/fu2nTFSMjw3t+u2/Hjg+Rj4rzi/Yku3f/zy0fuhrF/Le/ffjGretwU+FcvXbD1fv370eXwhjctftx3QxWghLxeEWrywJWJdSaKpF/uQ/512yskjOt6mmAp1TvotOLo1p8Uji6K8fHg0AQPGnVqguvufrK48e8LZs3Xnj+OTjM168HUStpR7V163o8natWnbVu/UVj497ffuDadetXL13mbd58JVUaq1evvPrqNa6yWfZgUaZSVHMqLbyq5edVbbvHxHhVcqxPhhTOz2ZwohqE3dx3ly9vkA0Px9q0ceOOHTsA0I033njDlq2NJd6tt93yN5e9/wPbbth8/Uac69tvufn6LdeNjHpbtm666urL379m1babbtyw8aor113697f/nTff35ZMCrWmRTIqL7Qotjp5cM+C0IvkWzl+rMrJEMzBVsi/iLVVQjGIuefPoqAFAEPHGZiZDvzof3nupSr8ZdZ7dv+Bo0cOHzvu/e/De//y/MukTC17/M+gcv/Tz+M+IOT9+ONPvfDigdcPv/XY4/93+I23Z5sHzlpxHnhSqRmed3yw6m2srqGds5/sPKGWsxdj2CqbT6tefnbldRArTF6cPdDNUJepVsK49bzJWWs0lo+fmPD86Yce/O/d0xODNe+/fvJzQn6o6v/5nR/DdU6Mje978sXhUe8H9/w8KAD0vZ/c9yvyEd49Nnb3D3a++uqRkZHaw79/ClRhFaJv0Yn+fe97n7owEOpum1Vx8pNWOgefcaxiPtIOBy6ARa6OFX0bXFxtev68El/BfmzKfly6bMUrL79a8yqvvHR4emaaDnl/fuZ1EhKQYW8dbY5NTNSrA089+UozEKHNN44c5See+vNhQeCdd45wMD3lHTp0HI6FRoa9iTeL7AacDtQMom/hzihqFxdi52XjWH2T3dB5qL/dCg4cVPI5Oee6T/A4bMQ8WBuemglylwfqAyFz45rG2ARgHG76wzPecNVr1OvLfW+o5YG6oWplmIPg6151YjJ4DVoLLVuG4MNCVISbg6KoynnkvtDcSy0Ko66alt9MteyqraCqjtnD7A+2/Qh9WsHGbrRSbrGhYVCWo50N5dwKE39HNSGz063Bam2g4k1PHKtXcDRMj4wOSMsGEG9OTSkrtdUamw3PTE4dD6o2cB80K9LtkHGTYXbhXP/BVnB89vJAnRKLCjcTqE5P+UODjTl3w3yml0M5OdVqu6paQrkn2MckI9OmWZmrhBMn9vVcJ8vZqnGsLnAypby5zpF6lb/RnXceSCGAA6VkOX8jx6pf0KY0UyGqVFKmjg/q0uHCMtF+lsg+18If7Yo8YzgWyhkSEBeXtsITplMpemP6Td1tn3oZ+kx59zKqnXSBECCIuEzlmCsr9jtzyz8sI3bXQ657ltsaQxn03nz9cUTfn6vU4DwtQMlogNspK5rdlAjmADK6kuA4VdObeabSiryeJPHEXMWx8qETixWWE2TVvmBLSdswqnZoMjQxUdk3J0YjMyfwufNR/CHs5CNQ7oNKfaJbYEQRiQeBT9UZlewuZB9+dl2wdGnjUEj4Gl599VUv7HuDkdjMIHcn7qHyHar9kkda7xdUpdrYEoWSROIxYgzq/BFtrOXmA+kjDqecd66USBI6OSArAayI9wRa1OQkx1xPyp7b1oAL9OeQg2rmBseCP4W/yfELSFXeyu/AR+BsfoOWysnehDnRrA6RcqjmC7sY9y3txPVHSCfVPnLcSHzFsSi3D3lUpZVAFAqjrMJxLDWp4pXzuJ1AxoEDB9RCnU9Rs5zeg5XHt+BwcCzYkmxAqWhcCZjIeediJfcBKbaXytn2zXEsF0fvhGN5pS8w7Mu0mVgwx8m+qHblUBVFj6LCjpOpclr17NhxXtgRVMILJAEy4ILCBH9CMnIM4PgW15DGDnReeeUVbUUGyMAWZiCau5tp1eeoCk0dJVJ1LLdqnBzXji/tvXcZiqNxrGJMK0saZlmFORqJRI/mz4lFkMQXlVUMH4JXhanxgeoGi4IbgSdxFw5UziWYEq7RL2gj3TVrLnG1a2J1yErJ2VRyVqELOnViFZafSlpX6FKy1GohdUXqjFpYR51e0n4clxLmJGKUKeXNbzMpdsIvwHJwl3/kIx/hU/C0fv16GMxzzz0ncEiXl59Jf0h6vdgkFh8Xb926lV246JkGE1y79jKuD/tTTsh9hdCUwyL6EOEdziFeRoPLjFCaTXTBeIlQlROaJWRXXr+0McphYHIFOZ+CcBNNmEkexLQucQianpGUpy6g8C3k4H333UfGuhQyWBFsDCcCFxOoAUNoYN58HQ64/OxnP8srPzg6CoZmEJqhqyyo6IfhRWKFAkFlHg1zal8ULk4supMl3NzrdAvppMIr6j7QW/VoiFJMnXfnnQqvPqXwiaMhqTOgLkYNRwMTF9RmnPKFOs4HxwJ5sh+BHd5RrkTfks4HwuBk0duIHbj9p6LKe1Ykp18qV/umHXcn/aLccnfActJQapCm08kUp79zPUCRAo7YQjHiDMdwGpCEO4o8Bd6CGL6IUiV2JZL+zlfQ6MPgTFBFzS9zGYUboI3sU5XIhp14fedliN5JzCkqgZ48H1PVrXdDd7CV6tRxNpRDT5RRxZzvsciJc6sKjkFNWNjyL5Roo2wzqdjOT3/6UzEhKUDSltRH/uabb167di14AkaSy/zS6Gig3QuyyFaQCvOb68sVT7ioxthwVKmPqpJJplXy8E4ftDGKFaBmXRZTnpJvY7Edx8AEMrnaOcCIU0+HLVu2gBsQA7DAk5yoXrjnhdwHXEyVBJchQEGeLEcAxAEADf1YNbggvz+vuVe8k/OkW624ry65BrJ0zZL3XuuDWGFydUYHPRoijFqUqewtKX2cNgNKlKOnWA1yDY8D52+66SZnJYjruCJBuBpIQiyCRfR9viXHFb8j9ym742hTDCink2Cy5W4+bqyjX/dlYjJsF/VNuNKoHDNKPgIHSilkwiXQUQ9j/ZQCNVz29a9/XQq1PFhyX8HSUM+p8eIabRrozRWrtRS6RmfnI3klshq+yTBMFkOn9rWPysSSd13zSlti7yKAsc26sgxDt4hdxMaBw9nz8339aPwS7KmMU4DIHtOHMRduhRIIprBHCIzH1++QqHf49aP/+A//FDXcnGDl94HO1GRzoB5sCjczDdsbALdjY0EeKQIRMYp50PSnqC07cWIyyyqPhgrUV9xtt5767G7Pehd3N2B1zf8eBWLbEp3oSaCgiK+8AJhsCDuXaJX8+hP7Hot5Kd22wnI9zG30ii8N3PoVhKKc8pxBD0Ok3nLLLZnVqmmKY/4jl7kRSD/5sTqJmiWPc0bfeRMgvO3A4o9//KNb9El1J6rjR3/Z+Z8AKAJUTWllHgIpMlq5GYD1rW9969Zbb61kU9GFVGZLsC85VtuVGu1LE8VBtGBf4lVxGPgKIGOvkS996Ut79+698sorU2fOeVZTzYgYlMNUwSnkoPbgvOeee3bt2kV2A9pY/h4+lY47i0bbcZfZU1ovOa/qpAIsNitJ7hIlfJW40dWtVDyGPZLYySK13sFtWROdSKcFOne/E5RhwuCALEROfvWrX+UCPBGwtLaaUL5/IanCl1wmnj69G9zcJ0vpo3wFjyXYAk+k4JESg3GHTXfttddG1aDon3MRbu/khhzOuow2L/HCXeb5E8KWBC4JW0jGnJSsJGjaMq0Yx7KC1V6hKt+PGqWwix8dIsdhUUSa0Y04g4vBRQZjJP+Tm0inh8nnqTRU5ysPt4KquzAAYOIypdNk9cdaWHs+41jd0dxzxrFt66xofqaUdzgW2JKbSplYOcm+Uaka9eBr3/mYg8ML/PKTLhuHA3R5/ooLXS9SDhYyawxY6ViR4uLmLD8ILYPfeSklp1yBVzR0AwdSEYSCg97JW22lNjD20kJ1UZ1JyfL6WzpQfpV+vK0QlF9evdqk+IP7nF1PYipgOX0Qp4Mfy1ltTtF2flF3TSTrt+CWJ5XecgXhSSxNUXB56tsuPAvpdAdPnVjgbsMmadwuCBjNKS1KvWYGKruAvTkOrbtt23685G1I+6bPe9YFsvkl+GK55A4ZkoxStAmZFASW12tgCSIqNUMUKqM1yz0R21bOYoWL5Vv5dXYxL6hjVA52XppXvYs26YIJ7UrpOtK0lOafs5NF9HnLXKXT9/2x3MaqUUhJLEq+KKzrSr6KT8B7ASxFhLhhwcXV9S+AhRuwCsMrh6NEvZQ4AhAoOJBcCE8SR1cWr6zqLScQgLhPHPT0alP2jlhXX3sc+mYDgSzS4tZClzOTda/EKbzqarmuvsXOR11Qx+ptnB4YqWUIFRxKiAiTbfzO8WTKewEnltOZ2u6J6tKktNY5Jp9zw4YNu3fvJm9Ye/WqhKaTCuPOLcRu6TTqQcI+Bhs3bsSnqs0W828y5vVdkHw3UbhQhr9p06a77rrrc5/7HGkLxAQps1EpfdGfyt/noiv04IMPPvvsswCLpg9UKTrZnbPwPNvFfjFcIaeWsBOispmsFbxEFDcTVwnTRP0Fz0QnG6ssQLLTrXRTSPAqeC3iGzlO7DJfF4wVmxiw3juOxfQgZWAD6n0VLZco9DsxdWfBvCrrESjy4cbIsFBKKjqWZHpbe8X8WL1V4XOC06TXkb+gRntq4rhq1Soi0AsA1uLZQ9Z9cnv8JkIQeJHHzHog6wY2lpVt4UWyF41jLQpV+flGWcOK1q9GQgiXsZCUgKXK0oXdSS90ZAQ0WFcFttJsWAA5qRDJ1nPGsRbFsXKyG1LPq2TebZPEVGEYUq2VH98tym8W/wvoVWQCqmUNfIvbA2csifxdUoxj9VwgZn3EVKmLmhwNApaM+W4ZFl15NBiV0sJUhK2AJksiR3nvi1aRpS6xlx/LS0uzbMtCmB59VzOkKG+iJXr3OVBRUjKPF8lLzrcHYWzwM1UBKVZdziZHJQWWYnwq0FNbomQuXslLgXtE2pmHV1gy+iL6vppKlK0JYOnA7nQLudEJdKj3S/7mg2cOaRCUayqLkoMStpYsHbBUnC7dCK2Wir+wHH4qOqzJZjJnDrkKbHm8aElCn8Eyypyy3ZCamDlvzRe/+EWiHGi4TvdyPe9SO9+d9iQrBLsENQsrct++fTToWpipe2YBSw3yPO2LNDn54Q9/mFbpmEsxObiwrL3TgJRxqiQIvF+0n8BRV0L9vYxRTMxvlakokZKdaqhVd1UrsYyRMw1e8smhLaAn7Nmz56Mf/ej27dvLeJ9lA5bwxKvSKVEjHnnkkZ07d27bti3Vi3OmAUt+E4aF5ffAAw/88pe/POP8WPkT77KIUrMG3DbdDCK9QH/961+/8MILsC5Xf8eS5S398tQE20uE81K3Ckt6K9zbrI57Lt8rBuuYLHaRcnHZZAJxtOVVahQ5OQ4qfnRFFlgwelVlG9onfgdXOpY12oW6bPYHx2oLrNRP3bYAynKRN4uRheffdtttKBaMrAqRCX2oHNlLdD3IcTNmdYyJ7usUxURUfYl+N1qgEcV00rOfdJF0MqNyKLi95lg/6qurJUeTwd/97nfkbuh8J2762J/OOt/3wEp+qjOx0mENpdoVs0ZRV2nzH+07GmsPFO2wkM6iT85ISeVqWfHd5N1G2V7q33WwixpuncyiqiNVp6/0ZZR0XpGA3/3udx977DFQJaeMM5lTn8hr19itR3zrlAEr63qXYYz3T/vbqEeoqoRJttyxY8cnPvEJ3vKpRjx144ms53IiL9aOIQkUb76EOjkBsQ7syWqiZIcSPVQSuFmcA8SQ88PTyf+iGA7bal533XV33323+thg4rj2gqlMK9Zp5zRR3pN7vyRFYYxPyE+j1G+3rRcHitQCNXEvNFb2I6GpFb5BTVj+Gk2KvCRQksvAtVVOvT4fH7HpdEHPLHGcqvNpQBgKHC5sYkAKP5nWAAvNUmmMWlQcqx990l0cUzlyZHH/icKk2us4U/RtdMtTvFaoFyAGJGl3XfX5JOmFM6hWkoxcdvDgQRTY5E4hScnoDlxUO6ZiayK9RMO3mch24lkzEZ1IATe21YqrzI6e99Ka2Ljf0dLiefGC0tIS7kW/OB5ZRYjKNiPehR+LAUHTihaCp+6iEGPqWYUhXQvS9xpYXkZumuMEsTl2rRxVW8eQKZ/EC1OXuIAhRkxo0y+BzO1/6dzxDrjR/TKT+2hGP/IS3bAd4FIfKrktT7SvnxfpMRnbwSB23gEuhgbtDCUFS/tuuq2ptVO6inmkirmmzklgRe8qaYYnF0zfACsmCpNNO2OkAQU6UmC1u5o3n0/CY6NtwPwBmTofc6XbLiu6W5NrXuVOOsAlYRTbojyrh1vOzucxVpTkZG5b3pi0cn3bolsuemGelm4YBYtnBFja+UK/ILcLPlLFVaWApnK+mO4Y0yn7UnlfGOU0w8gXuLGDpA6XZfelcqa2fzfHmktKt5h+E/NQpJ7P4hxFExlOVbSn1OVfRQcotUlGckfWVNGcNWFFF7Srjo+9Op0y1Z2b1KyzFli/RBoqZ1qiXIeOxL6byDMopPPeAyIHBEnGsMgVVbS4I8uDn/X1ftxV9bTiWIuJeXUIyvfSgXyq/JkGrMX694saDUWp3zmNAauA1ZYV4ztVuloqp+x1VNiA1eUJzm+h3skWPT1V6rvS/caAZXSmkCkERgYsIwOWkQHLyMiAZWTAMjJgGRkZsIwMWEYGLCMjA5aRAcvIgGVkZMAyMmAZGbCMjAxYRgYsIwOWkZEBy8iAZWTAMjIyYBkZsIwMWEZGBiwjA5aRAcvIyIBlZMAyMmAZGRmwjAxYRgYsIyMDlpEBy8iAZWRkwDIyYBmdxvT/3ozi/Uro5nwAAAAASUVORK5CYII=;" vertex="1" parent="1">
                    <mxGeometry x="550" y="210" width="40" height="40" as="geometry"/>
                </mxCell>
                <mxCell id="14" value="Port 22" style="text;html=1;align=center;verticalAlign=middle;resizable=0;points=[];autosize=1;strokeColor=none;fillColor=none;" vertex="1" parent="1">
                    <mxGeometry x="540" y="180" width="60" height="30" as="geometry"/>
                </mxCell>
                <mxCell id="15" value="" style="shape=image;imageAspect=0;aspect=fixed;verticalLabelPosition=bottom;verticalAlign=top;image=data:image/png,iVBORw0KGgoAAAANSUhEUgAAAMgAAADICAIAAAAiOjnJAAAACXBIWXMAAA7zAAAO8wEcU5k6AAAAEXRFWHRUaXRsZQBQREYgQ3JlYXRvckFevCgAAAATdEVYdEF1dGhvcgBQREYgVG9vbHMgQUcbz3cwAAAALXpUWHREZXNjcmlwdGlvbgAACJnLKCkpsNLXLy8v1ytISdMtyc/PKdZLzs8FAG6fCPGXryy4AAAfhUlEQVR42u2daawcV5XHq5e3tpfYCVntBMeTxc5ix46daHAIODCJ5IlmPgxiESAxCIRmFA0jIYSExDc+gDIaxIcgBQgEhREyViAIWQkSIxnNJBCZJCYTnIU4cTbHcZzF9ttfV8+v6v/epVxbd73XHVfb58hqV1dX96u693/Pfs6ttFotz8io21S1ITAyYBkZsIwMWEZGBiwjA5aRAcvIyIBlZMAyMmAZGRmwjAxYRgYsIyMDlpEBy8iAZWRkwDIyYBkZsIyMDFhGBiwjA5aRkQHLyIBlZMAyMjJgGRmwjAxYRkYGLCMDlpEBy8jIgGVkwDIyYBkZGbCMDFhGBiwjIwOWkQHLyIBlZGTAMjJgGRmwjIwMWEYGLCMDlpGRAcvoVFK9X26UfRWbzWatVqtUKrzluFqtctyt/Rb1s2nkZ91QxvW1Lj6z7/vV2twP8oabbLZ8PThnJiYmRkZGyjlflb7bCBNIBbNXq3Hnk5OTvR9ZvyAauiMExsfGRhsNDmamp4HX0PDwHJqrwZTNzs4ODAxwYnp6mgEpIbz6BlgzMzMMJa8ca0x1RjhbPNVqtULAgn9kcL7uCQEx6Xrwg36zyfPCq6ZmppcsWaLPWVfDIeDEyw1YCyQ3jixThrherx85ckRQ64qoTR8gzy8kOlt+pTt8MhR8gbJSr4OkxjyYvMrcp4GCXK2Oj4+Pjo6WEFh9o2NpBLU6n3/++SeffJIz55133tDQUG9XXkFg+d1hoF6j0Th+/DhwB1hvv/32sWPH1qxZs2XLltElDbFq8Ww3JsaxFkWPPvroM888s3bt2ssvv5xVOzU1JR7WS1GYp+qlmNnV7uhY/D7oQZeCPbN4uL2XX36ZZ1+6dOn27dt5y3lUKy7TgelYCxdVv/nNbxjrDRs2ACneLlu2DKbVrfsv+jtZAOqWzicmBLuS5avb4/jo0aO7du362te+JsWgGdLg4KABa4F07733Xn/99RdddBHHrGCkgIzt2WZv3Q1ZojBTJ6t0RyRJx/JD4gCEiafCwjj40Y9+9KlPferss88G385MNmC1H1ONlxusX/ziF5dddtmSkDiJgNBwB5f5PR6gou6GHvucsQ6Rhqhc999//+c//3nWGDNYNlSVFFhwIzlC5a3505/+hPV3xRVXsGoFOK3ROR5TqZ1RwAo9D4H6hWq/d+/eT37yk+WUMGW0CoUY6RZwpqeffvqqq64KpcCsUMVHQl4gJ1rFdJqiC+lUAStLNPPc8rDAvFlmBw8evOSSS8TjDVjtDTRNP+vypZdeYsiWL18+NjbmxlqoUpCnVXAie8+h/Z4CiyfmIzR3LOLNmzc//PDDF198cdlQVUZgwZYQebL7GEHkIAM3HYY1HJ5mQ5qLHtYHvTOJWpXg8RkKjGLg9e6778ofUbb7LB3Stfh4FcOHY+EFxQCshiTV3invQLBVkPoGQBnEIPD4egVYl1566RtvvOH7vnGsjoAlQcDYObkgfUuvsgcV5Pdn/aIT1tcci8fHfcWqQzdAQ0AgHjp06MILLzRgtR84By9GTZENeQJjyod0+Vp9uMfAKpfyPjk5jruBMTnnnHOAF34H5+IyYLUZUI0p3mSABcJQIKZnAkvQC53P8i/4rcDRUCFk1vKzACotjXFnApgMIm7yZRd2OBQUYkWBzl2xQqRE6gw36bh1HLaDI+MTU40ly3jlK8uWrwhCigu60TPOKkxylyz1KMgkyACWMCStn1dWtkzLLHXkVIlIRZQV9UOV1G1zoDBzh4NjfqyFwytVNITMrZIzZ7KYVqxYgfX0zjvvgK2sNJtTNT3I+hMnTrz55puIe1IVYNKo5BxkcazoMiuzvljvC1RJqBX6onK24ASsfiaJsBqTxxQWdfn0evJgomALhQk8EVOHUYEwjrPUphYOh36wRep9gSqn1HcuClHRwBYMAH/P4cOHecv8yftVSFnu9czBTcGTYglyAnOf3HaHnggThYt15xTlWKSXkAqBwo7KcsEFF4gZwMB67fIpep/wUbA1HdJZZ50F9JHahGt42yHHMmAtamKK6lh4Dl988cV9+/Y99NBDgIzRh2khFrNSl7o1PUVF7Qc/+MFt27atXr1a2rqiCyyDHOs16e/l/0rFgLUgvlVUFJJseccdd/xzSMrAQYtH1rS1tlL9ar0DFibFD3/4w2uuueZjH/sYeEIIEmmAaXl9TvVywsjxJzl4cuQLK5v5QHYwJYp4ACDOfOUrX/nmN7+JeYWjQWG1aLpc59Qt32PWI2CofvnLX/7+979P1jWZjNw8qFKoKge7LgLB+CA9y8au+kh5T88bQ+EAT8rccqwFeffEE098/OMfR2VBU0EXroWEEHTe1wKA6PEzgiSY1mc+85lvfOMbN9xwA0siX3NqeS3jWF02DLNI1YXOzw6YqOG5/fbb9RZgybvNZYCvqOe957wgtAfhuOeff/7rr7+OIu/Npzpm3VDJXaN9o2Np9WZxGuQCc4Ck40DSAT8Q0kRxa6EKfoY9qFBJUdFW6Rp+0n+JeKd8pOvWreMReBAEd45bJOpl6GKHgTMCWG4OoqOWJQqlbUCuWApgqZyVA14JpSkVQmIxx6PdU2BlIiDMMyaUSfo1N4lSiGREiCPQc4BVZkj1lx/Ly1I4xKUk6ZTvIDkiux0wSdBwkk+ZtqJWXq9F4XCthpqI/gdP5UBJjllOrA51AwNWR4Zhh7ab8r6VIeiy4YJ2GkNDMqOU5nCqlPcsKHB78CoULA5gqLjcVq5ciV83qxC3Na+/uyEyB2mvIKhULUWXWfda7oAJNiBBicdB+pbycE6hFZIkRB5KlRxaaFogDAURVGXCJbIwypwTWy8nr3L9MBj3UJ/ws0Rhq1KteS2X0CyxIo9oczaIQ2NFDQ4EYpG3tao3UKuGjp+K9DCm84ILzyO7d2gocJySUR6+6s8hZb3abCP7ZlMwWhuYa1sFByJGCftRDnGWxz+sNWpOTU80lozwJBwMDQ/4zSyGXa21mnLX6QK/OcO/ky/1297ke0DVfmFLbfWwDhcxujzaGLBj+mFyqF+HXjs8PDQKQoN/PkLTC195W6v4Nd9rZv+bSZ7kN/F5vvXWW/whsZ+ipqjTovo6bb/eL3jKsQodKWs0a/RlSZ173jlMOccwBhgbfAXuUq8PzmjZz734rb9+K1/Zj1U1otW1wBbuKBgVAWawxauEcueeiLYqpinv3bIK2w+0lPfoiLuvONnK6+HDhxBP2JHAa2S4MT4+GQanp4IKKrhU4o+0alOFbrg51YIXqjca94PPc64VQEazkKjjIOKjynzQ2GemY/VEGjr7KCk7ktMmOvfcc7G84FPgCdWn0VjSaCx988jRZ595PvXv+gWBNTI0rLQqVHLYFQmGylbIzPdKc93lAKsSGYpKCWOEpQVWJWH1LCAfKxoTjGEL7R4dC1TRIa3RGD1xYvzO//jOvff++N/u+HcvTQWWOt85+a1pMU6qsh544IGf/exnwAuDNIdjOa9BRxzLMz9WV1lUFsfqHHBCGEjCr33i+HhtoD48OHDX9763evXF+/c/HaQ/hMHuQITJCK34vGt6GWk2GYCrD1aUt46aRachmnbs2bMnRxRmPHilreFcck9pv8QK8wAU+ygrJVAHSxrLJsanRhqBL/6FAwfpfXDfff9y7Ni7+CTD/h9+1ZsFNNiHAKvaggMl3Q1Z6nxwfiJsg6YIEs0d77zzzp07d37605/ukhXc0nMYx1qsK8vlY+VZhX7Ttb2L2oZzGaZRmy3gHKQ8DM/O+NVK/bXXXmPK8QX84dFH7rjjX/km3pdly2sVr3niXW/lCo98O97QPYkavoEaB4GQmpr2hoe8iSlv5VlDJ05MTc96K5YP0kIBWHFwdDywCnExUB+BKKRPzre//e0vfOELWbE/L1TtuQeXZaVzmaJ27oKKjkUGrJ74sTr0YP1VIM75FeBL+BJgTbgj/eGR+sQ46pG3dcvGwXrlD7/fu2nTFSMjw3t+u2/Hjg+Rj4rzi/Yku3f/zy0fuhrF/Le/ffjGretwU+FcvXbD1fv370eXwhjctftx3QxWghLxeEWrywJWJdSaKpF/uQ/512yskjOt6mmAp1TvotOLo1p8Uji6K8fHg0AQPGnVqguvufrK48e8LZs3Xnj+OTjM168HUStpR7V163o8natWnbVu/UVj497ffuDadetXL13mbd58JVUaq1evvPrqNa6yWfZgUaZSVHMqLbyq5edVbbvHxHhVcqxPhhTOz2ZwohqE3dx3ly9vkA0Px9q0ceOOHTsA0I033njDlq2NJd6tt93yN5e9/wPbbth8/Uac69tvufn6LdeNjHpbtm666urL379m1babbtyw8aor113697f/nTff35ZMCrWmRTIqL7Qotjp5cM+C0IvkWzl+rMrJEMzBVsi/iLVVQjGIuefPoqAFAEPHGZiZDvzof3nupSr8ZdZ7dv+Bo0cOHzvu/e/De//y/MukTC17/M+gcv/Tz+M+IOT9+ONPvfDigdcPv/XY4/93+I23Z5sHzlpxHnhSqRmed3yw6m2srqGds5/sPKGWsxdj2CqbT6tefnbldRArTF6cPdDNUJepVsK49bzJWWs0lo+fmPD86Yce/O/d0xODNe+/fvJzQn6o6v/5nR/DdU6Mje978sXhUe8H9/w8KAD0vZ/c9yvyEd49Nnb3D3a++uqRkZHaw79/ClRhFaJv0Yn+fe97n7owEOpum1Vx8pNWOgefcaxiPtIOBy6ARa6OFX0bXFxtev68El/BfmzKfly6bMUrL79a8yqvvHR4emaaDnl/fuZ1EhKQYW8dbY5NTNSrA089+UozEKHNN44c5See+vNhQeCdd45wMD3lHTp0HI6FRoa9iTeL7AacDtQMom/hzihqFxdi52XjWH2T3dB5qL/dCg4cVPI5Oee6T/A4bMQ8WBuemglylwfqAyFz45rG2ARgHG76wzPecNVr1OvLfW+o5YG6oWplmIPg6151YjJ4DVoLLVuG4MNCVISbg6KoynnkvtDcSy0Ko66alt9MteyqraCqjtnD7A+2/Qh9WsHGbrRSbrGhYVCWo50N5dwKE39HNSGz063Bam2g4k1PHKtXcDRMj4wOSMsGEG9OTSkrtdUamw3PTE4dD6o2cB80K9LtkHGTYXbhXP/BVnB89vJAnRKLCjcTqE5P+UODjTl3w3yml0M5OdVqu6paQrkn2MckI9OmWZmrhBMn9vVcJ8vZqnGsLnAypby5zpF6lb/RnXceSCGAA6VkOX8jx6pf0KY0UyGqVFKmjg/q0uHCMtF+lsg+18If7Yo8YzgWyhkSEBeXtsITplMpemP6Td1tn3oZ+kx59zKqnXSBECCIuEzlmCsr9jtzyz8sI3bXQ657ltsaQxn03nz9cUTfn6vU4DwtQMlogNspK5rdlAjmADK6kuA4VdObeabSiryeJPHEXMWx8qETixWWE2TVvmBLSdswqnZoMjQxUdk3J0YjMyfwufNR/CHs5CNQ7oNKfaJbYEQRiQeBT9UZlewuZB9+dl2wdGnjUEj4Gl599VUv7HuDkdjMIHcn7qHyHar9kkda7xdUpdrYEoWSROIxYgzq/BFtrOXmA+kjDqecd66USBI6OSArAayI9wRa1OQkx1xPyp7b1oAL9OeQg2rmBseCP4W/yfELSFXeyu/AR+BsfoOWysnehDnRrA6RcqjmC7sY9y3txPVHSCfVPnLcSHzFsSi3D3lUpZVAFAqjrMJxLDWp4pXzuJ1AxoEDB9RCnU9Rs5zeg5XHt+BwcCzYkmxAqWhcCZjIeediJfcBKbaXytn2zXEsF0fvhGN5pS8w7Mu0mVgwx8m+qHblUBVFj6LCjpOpclr17NhxXtgRVMILJAEy4ILCBH9CMnIM4PgW15DGDnReeeUVbUUGyMAWZiCau5tp1eeoCk0dJVJ1LLdqnBzXji/tvXcZiqNxrGJMK0saZlmFORqJRI/mz4lFkMQXlVUMH4JXhanxgeoGi4IbgSdxFw5UziWYEq7RL2gj3TVrLnG1a2J1yErJ2VRyVqELOnViFZafSlpX6FKy1GohdUXqjFpYR51e0n4clxLmJGKUKeXNbzMpdsIvwHJwl3/kIx/hU/C0fv16GMxzzz0ncEiXl59Jf0h6vdgkFh8Xb926lV246JkGE1y79jKuD/tTTsh9hdCUwyL6EOEdziFeRoPLjFCaTXTBeIlQlROaJWRXXr+0McphYHIFOZ+CcBNNmEkexLQucQianpGUpy6g8C3k4H333UfGuhQyWBFsDCcCFxOoAUNoYN58HQ64/OxnP8srPzg6CoZmEJqhqyyo6IfhRWKFAkFlHg1zal8ULk4supMl3NzrdAvppMIr6j7QW/VoiFJMnXfnnQqvPqXwiaMhqTOgLkYNRwMTF9RmnPKFOs4HxwJ5sh+BHd5RrkTfks4HwuBk0duIHbj9p6LKe1Ykp18qV/umHXcn/aLccnfActJQapCm08kUp79zPUCRAo7YQjHiDMdwGpCEO4o8Bd6CGL6IUiV2JZL+zlfQ6MPgTFBFzS9zGYUboI3sU5XIhp14fedliN5JzCkqgZ48H1PVrXdDd7CV6tRxNpRDT5RRxZzvsciJc6sKjkFNWNjyL5Roo2wzqdjOT3/6UzEhKUDSltRH/uabb167di14AkaSy/zS6Gig3QuyyFaQCvOb68sVT7ioxthwVKmPqpJJplXy8E4ftDGKFaBmXRZTnpJvY7Edx8AEMrnaOcCIU0+HLVu2gBsQA7DAk5yoXrjnhdwHXEyVBJchQEGeLEcAxAEADf1YNbggvz+vuVe8k/OkW624ry65BrJ0zZL3XuuDWGFydUYHPRoijFqUqewtKX2cNgNKlKOnWA1yDY8D52+66SZnJYjruCJBuBpIQiyCRfR9viXHFb8j9ym742hTDCink2Cy5W4+bqyjX/dlYjJsF/VNuNKoHDNKPgIHSilkwiXQUQ9j/ZQCNVz29a9/XQq1PFhyX8HSUM+p8eIabRrozRWrtRS6RmfnI3klshq+yTBMFkOn9rWPysSSd13zSlti7yKAsc26sgxDt4hdxMaBw9nz8339aPwS7KmMU4DIHtOHMRduhRIIprBHCIzH1++QqHf49aP/+A//FDXcnGDl94HO1GRzoB5sCjczDdsbALdjY0EeKQIRMYp50PSnqC07cWIyyyqPhgrUV9xtt5767G7Pehd3N2B1zf8eBWLbEp3oSaCgiK+8AJhsCDuXaJX8+hP7Hot5Kd22wnI9zG30ii8N3PoVhKKc8pxBD0Ok3nLLLZnVqmmKY/4jl7kRSD/5sTqJmiWPc0bfeRMgvO3A4o9//KNb9El1J6rjR3/Z+Z8AKAJUTWllHgIpMlq5GYD1rW9969Zbb61kU9GFVGZLsC85VtuVGu1LE8VBtGBf4lVxGPgKIGOvkS996Ut79+698sorU2fOeVZTzYgYlMNUwSnkoPbgvOeee3bt2kV2A9pY/h4+lY47i0bbcZfZU1ovOa/qpAIsNitJ7hIlfJW40dWtVDyGPZLYySK13sFtWROdSKcFOne/E5RhwuCALEROfvWrX+UCPBGwtLaaUL5/IanCl1wmnj69G9zcJ0vpo3wFjyXYAk+k4JESg3GHTXfttddG1aDon3MRbu/khhzOuow2L/HCXeb5E8KWBC4JW0jGnJSsJGjaMq0Yx7KC1V6hKt+PGqWwix8dIsdhUUSa0Y04g4vBRQZjJP+Tm0inh8nnqTRU5ysPt4KquzAAYOIypdNk9cdaWHs+41jd0dxzxrFt66xofqaUdzgW2JKbSplYOcm+Uaka9eBr3/mYg8ML/PKTLhuHA3R5/ooLXS9SDhYyawxY6ViR4uLmLD8ILYPfeSklp1yBVzR0AwdSEYSCg97JW22lNjD20kJ1UZ1JyfL6WzpQfpV+vK0QlF9evdqk+IP7nF1PYipgOX0Qp4Mfy1ltTtF2flF3TSTrt+CWJ5XecgXhSSxNUXB56tsuPAvpdAdPnVjgbsMmadwuCBjNKS1KvWYGKruAvTkOrbtt23685G1I+6bPe9YFsvkl+GK55A4ZkoxStAmZFASW12tgCSIqNUMUKqM1yz0R21bOYoWL5Vv5dXYxL6hjVA52XppXvYs26YIJ7UrpOtK0lOafs5NF9HnLXKXT9/2x3MaqUUhJLEq+KKzrSr6KT8B7ASxFhLhhwcXV9S+AhRuwCsMrh6NEvZQ4AhAoOJBcCE8SR1cWr6zqLScQgLhPHPT0alP2jlhXX3sc+mYDgSzS4tZClzOTda/EKbzqarmuvsXOR11Qx+ptnB4YqWUIFRxKiAiTbfzO8WTKewEnltOZ2u6J6tKktNY5Jp9zw4YNu3fvJm9Ye/WqhKaTCuPOLcRu6TTqQcI+Bhs3bsSnqs0W828y5vVdkHw3UbhQhr9p06a77rrrc5/7HGkLxAQps1EpfdGfyt/noiv04IMPPvvsswCLpg9UKTrZnbPwPNvFfjFcIaeWsBOispmsFbxEFDcTVwnTRP0Fz0QnG6ssQLLTrXRTSPAqeC3iGzlO7DJfF4wVmxiw3juOxfQgZWAD6n0VLZco9DsxdWfBvCrrESjy4cbIsFBKKjqWZHpbe8X8WL1V4XOC06TXkb+gRntq4rhq1Soi0AsA1uLZQ9Z9cnv8JkIQeJHHzHog6wY2lpVt4UWyF41jLQpV+flGWcOK1q9GQgiXsZCUgKXK0oXdSS90ZAQ0WFcFttJsWAA5qRDJ1nPGsRbFsXKyG1LPq2TebZPEVGEYUq2VH98tym8W/wvoVWQCqmUNfIvbA2csifxdUoxj9VwgZn3EVKmLmhwNApaM+W4ZFl15NBiV0sJUhK2AJksiR3nvi1aRpS6xlx/LS0uzbMtCmB59VzOkKG+iJXr3OVBRUjKPF8lLzrcHYWzwM1UBKVZdziZHJQWWYnwq0FNbomQuXslLgXtE2pmHV1gy+iL6vppKlK0JYOnA7nQLudEJdKj3S/7mg2cOaRCUayqLkoMStpYsHbBUnC7dCK2Wir+wHH4qOqzJZjJnDrkKbHm8aElCn8Eyypyy3ZCamDlvzRe/+EWiHGi4TvdyPe9SO9+d9iQrBLsENQsrct++fTToWpipe2YBSw3yPO2LNDn54Q9/mFbpmEsxObiwrL3TgJRxqiQIvF+0n8BRV0L9vYxRTMxvlakokZKdaqhVd1UrsYyRMw1e8smhLaAn7Nmz56Mf/ej27dvLeJ9lA5bwxKvSKVEjHnnkkZ07d27bti3Vi3OmAUt+E4aF5ffAAw/88pe/POP8WPkT77KIUrMG3DbdDCK9QH/961+/8MILsC5Xf8eS5S398tQE20uE81K3Ckt6K9zbrI57Lt8rBuuYLHaRcnHZZAJxtOVVahQ5OQ4qfnRFFlgwelVlG9onfgdXOpY12oW6bPYHx2oLrNRP3bYAynKRN4uRheffdtttKBaMrAqRCX2oHNlLdD3IcTNmdYyJ7usUxURUfYl+N1qgEcV00rOfdJF0MqNyKLi95lg/6qurJUeTwd/97nfkbuh8J2762J/OOt/3wEp+qjOx0mENpdoVs0ZRV2nzH+07GmsPFO2wkM6iT85ISeVqWfHd5N1G2V7q33WwixpuncyiqiNVp6/0ZZR0XpGA3/3udx977DFQJaeMM5lTn8hr19itR3zrlAEr63qXYYz3T/vbqEeoqoRJttyxY8cnPvEJ3vKpRjx144ms53IiL9aOIQkUb76EOjkBsQ7syWqiZIcSPVQSuFmcA8SQ88PTyf+iGA7bal533XV33323+thg4rj2gqlMK9Zp5zRR3pN7vyRFYYxPyE+j1G+3rRcHitQCNXEvNFb2I6GpFb5BTVj+Gk2KvCRQksvAtVVOvT4fH7HpdEHPLHGcqvNpQBgKHC5sYkAKP5nWAAvNUmmMWlQcqx990l0cUzlyZHH/icKk2us4U/RtdMtTvFaoFyAGJGl3XfX5JOmFM6hWkoxcdvDgQRTY5E4hScnoDlxUO6ZiayK9RMO3mch24lkzEZ1IATe21YqrzI6e99Ka2Ljf0dLiefGC0tIS7kW/OB5ZRYjKNiPehR+LAUHTihaCp+6iEGPqWYUhXQvS9xpYXkZumuMEsTl2rRxVW8eQKZ/EC1OXuIAhRkxo0y+BzO1/6dzxDrjR/TKT+2hGP/IS3bAd4FIfKrktT7SvnxfpMRnbwSB23gEuhgbtDCUFS/tuuq2ptVO6inmkirmmzklgRe8qaYYnF0zfACsmCpNNO2OkAQU6UmC1u5o3n0/CY6NtwPwBmTofc6XbLiu6W5NrXuVOOsAlYRTbojyrh1vOzucxVpTkZG5b3pi0cn3bolsuemGelm4YBYtnBFja+UK/ILcLPlLFVaWApnK+mO4Y0yn7UnlfGOU0w8gXuLGDpA6XZfelcqa2fzfHmktKt5h+E/NQpJ7P4hxFExlOVbSn1OVfRQcotUlGckfWVNGcNWFFF7Srjo+9Op0y1Z2b1KyzFli/RBoqZ1qiXIeOxL6byDMopPPeAyIHBEnGsMgVVbS4I8uDn/X1ftxV9bTiWIuJeXUIyvfSgXyq/JkGrMX694saDUWp3zmNAauA1ZYV4ztVuloqp+x1VNiA1eUJzm+h3skWPT1V6rvS/caAZXSmkCkERgYsIwOWkQHLyMiAZWTAMjJgGRkZsIwMWEYGLCMjA5aRAcvIgGVkZMAyMmAZGbCMjAxYRgYsIwOWkZEBy8iAZWTAMjIyYBkZsIwMWEZGBiwjA5aRAcvIyIBlZMAyMmAZGRmwjAxYRgYsIyMDlpEBy8iAZWRkwDIyYBmdxvT/3ozi/Uro5nwAAAAASUVORK5CYII=;" vertex="1" parent="1">
                    <mxGeometry x="550" y="650" width="40" height="40" as="geometry"/>
                </mxCell>
                <mxCell id="16" value="Port 80&lt;br&gt;" style="text;html=1;align=center;verticalAlign=middle;resizable=0;points=[];autosize=1;strokeColor=none;fillColor=none;" vertex="1" parent="1">
                    <mxGeometry x="540" y="620" width="60" height="30" as="geometry"/>
                </mxCell>
                <mxCell id="17" value="Page" style="html=1;strokeColor=none;fillColor=#0079D6;labelPosition=center;verticalLabelPosition=middle;verticalAlign=top;align=center;fontSize=12;outlineConnect=0;spacingTop=-6;fontColor=#FFFFFF;sketch=0;shape=mxgraph.sitemap.page;" vertex="1" parent="1">
                    <mxGeometry x="645" y="635" width="120" height="70" as="geometry"/>
                </mxCell>
                <mxCell id="20" value="&lt;font color=&quot;#000000&quot;&gt;&lt;b&gt;10.10.11.211:80&lt;/b&gt;&lt;/font&gt;" style="text;html=1;align=center;verticalAlign=middle;resizable=0;points=[];autosize=1;strokeColor=none;fillColor=none;" vertex="1" parent="1">
                    <mxGeometry x="650" y="705" width="110" height="30" as="geometry"/>
                </mxCell>
                <mxCell id="21" value="&lt;font color=&quot;#000000&quot;&gt;&lt;b&gt;Login CACTI v1.2.22&lt;/b&gt;&lt;/font&gt;" style="text;html=1;align=center;verticalAlign=middle;resizable=0;points=[];autosize=1;strokeColor=none;fillColor=none;" vertex="1" parent="1">
                    <mxGeometry x="635" y="610" width="140" height="30" as="geometry"/>
                </mxCell>
                <mxCell id="23" value="" style="sketch=0;aspect=fixed;html=1;points=[];align=center;image;fontSize=12;image=img/lib/mscae/Docker.svg;fontColor=#000000;" vertex="1" parent="1">
                    <mxGeometry x="770" y="474" width="100" height="82" as="geometry"/>
                </mxCell>
                <mxCell id="24" value="&lt;b&gt;172.19.0.3&lt;/b&gt;" style="text;html=1;align=center;verticalAlign=middle;resizable=0;points=[];autosize=1;strokeColor=none;fillColor=none;fontColor=#000000;" vertex="1" parent="1">
                    <mxGeometry x="775" y="550" width="80" height="30" as="geometry"/>
                </mxCell>
                <mxCell id="25" value="" style="endArrow=classic;html=1;fontColor=#000000;entryX=0;entryY=0.659;entryDx=0;entryDy=0;entryPerimeter=0;" edge="1" parent="1" source="15" target="22">
                    <mxGeometry width="50" height="50" relative="1" as="geometry">
                        <mxPoint x="680" y="490" as="sourcePoint"/>
                        <mxPoint x="730" y="440" as="targetPoint"/>
                    </mxGeometry>
                </mxCell>
                <mxCell id="41" value="ssh marcus@10.10.11.211&lt;br&gt;funkymonkey" style="text;html=1;align=center;verticalAlign=middle;resizable=0;points=[];autosize=1;strokeColor=none;fillColor=none;fontColor=#FFFFFF;" vertex="1" parent="1">
                    <mxGeometry x="580.8" y="240" width="170" height="40" as="geometry"/>
                </mxCell>
                <mxCell id="42" value="" style="shape=flexArrow;endArrow=classic;html=1;fontColor=#FFFFFF;" edge="1" parent="1">
                    <mxGeometry width="50" height="50" relative="1" as="geometry">
                        <mxPoint x="590" y="229.5" as="sourcePoint"/>
                        <mxPoint x="760" y="229.5" as="targetPoint"/>
                    </mxGeometry>
                </mxCell>
            </root>
        </mxGraphModel>
    </diagram>
</mxfile>